# Created by Kenney (www.kenney.nl)

mtllib burger.mtl

v 5 4 0.5
v 4 4 0.5
v 4.965926 4.258819 0.5
v 4 5 0.5
v 4.866025 4.5 0.5
v 4.707107 4.707107 0.5
v 4.5 4.866025 0.5
v 4.258819 4.965926 0.5
v 4.707107 4.707107 -0.5
v 4.5 4.866025 -0.5
v 4.965926 4.258819 -0.5
v 5 4 -0.5
v 4.258819 4.965926 -0.5
v 4 5 -0.5
v 4 4 -0.5
v 4.866025 4.5 -0.5
v 4.258819 -4.965926 0.5
v 4.258819 -4.965926 -0.5
v 4 -5 0.5
v 4.5 -4.866025 0.5
v 4.5 -4.866025 -0.5
v 4.707107 -4.707107 0.5
v 4.707107 -4.707107 -0.5
v 4.866025 -4.5 0.5
v 4 -5 -0.5
v 4.965926 -4.258819 -0.5
v 4.866025 -4.5 -0.5
v 4.965926 -4.258819 0.5
v 4 -4 -0.5
v 4 -4 0.5
v 5 -4 -0.5
v 5 -4 0.5
v -4.707107 4.707107 -0.5
v -4.866025 4.5 -0.5
v -4 5 -0.5
v -4.5 4.866025 -0.5
v -4.258819 4.965926 -0.5
v -4.965926 4.258819 -0.5
v -5 4 -0.5
v -4 4 -0.5
v -4 5 0.5
v -4.258819 4.965926 0.5
v -4 4 0.5
v -5 4 0.5
v -4.5 4.866025 0.5
v -4.707107 4.707107 0.5
v -4.965926 4.258819 0.5
v -4.866025 4.5 0.5
v -4.5 -4.866025 0.5
v -4.5 -4.866025 -0.5
v -4.707107 -4.707107 0.5
v -4.707107 -4.707107 -0.5
v -4.866025 -4.5 -0.5
v -4.965926 -4.258819 -0.5
v -4.866025 -4.5 0.5
v -5 -4 0.5
v -4.965926 -4.258819 0.5
v -5 -4 -0.5
v -4 -5 0.5
v -4 -5 -0.5
v -4.258819 -4.965926 0.5
v -4.258819 -4.965926 -0.5
v -4 -4 -0.5
v -4 -4 0.5

vn 0 0 1
vn 0.7071068 0.7071068 0
vn 0.5 0.8660254 0
vn 0.9659258 0.258819 0
vn 0.9914449 0.1305262 0
vn 0.2588191 0.9659258 0
vn 0.1305262 0.9914449 0
vn 0 0 -1
vn 0.8660254 0.5 0
vn 0 -1 0
vn -1 0 0
vn 0.258819 -0.9659258 0
vn 0.1305262 -0.9914449 0
vn 0.5 -0.8660254 0
vn 0.7071068 -0.7071068 0
vn 0.8660254 -0.5 0
vn 0.9659258 -0.258819 0
vn 0 1 0
vn 0.9914449 -0.1305262 0
vn -0.1305262 0.9914449 0
vn -0.258819 0.9659258 0
vn -0.5 0.8660254 0
vn -0.7071068 0.7071068 0
vn -0.9914449 0.1305262 0
vn -0.9659258 0.258819 0
vn -0.8660254 0.5 0
vn 1 0 0
vn -0.5 -0.8660254 0
vn -0.7071068 -0.7071068 0
vn -0.8660254 -0.5 0
vn -0.9659258 -0.258819 0
vn -0.9914449 -0.1305262 0
vn -0.1305262 -0.9914449 0
vn -0.258819 -0.9659258 0

vt 0.0625 0.0625

usemtl burger

f 3/1/1 2/1/1 1/1/1
f 2/1/1 3/1/1 4/1/1
f 4/1/1 3/1/1 5/1/1
f 4/1/1 5/1/1 6/1/1
f 4/1/1 6/1/1 7/1/1
f 4/1/1 7/1/1 8/1/1
f 10/1/3 6/1/2 9/1/2
f 6/1/2 10/1/3 7/1/3
f 3/1/4 12/1/5 11/1/4
f 12/1/5 3/1/4 1/1/5
f 14/1/7 8/1/6 13/1/6
f 8/1/6 14/1/7 4/1/7
f 15/1/8 11/1/8 12/1/8
f 11/1/8 15/1/8 14/1/8
f 11/1/8 14/1/8 16/1/8
f 16/1/8 14/1/8 9/1/8
f 9/1/8 14/1/8 10/1/8
f 10/1/8 14/1/8 13/1/8
f 6/1/2 16/1/9 9/1/2
f 16/1/9 6/1/2 5/1/9
f 2/1/10 12/1/10 1/1/10
f 12/1/10 2/1/10 15/1/10
f 2/1/11 14/1/11 15/1/11
f 14/1/11 2/1/11 4/1/11
f 5/1/9 11/1/4 16/1/9
f 11/1/4 5/1/9 3/1/4
f 13/1/6 7/1/3 10/1/3
f 7/1/3 13/1/6 8/1/6
f 19/1/13 18/1/12 17/1/12
f 17/1/12 21/1/14 20/1/14
f 20/1/14 23/1/15 22/1/15
f 23/1/15 24/1/16 22/1/15
f 23/1/15 20/1/14 21/1/14
f 21/1/14 17/1/12 18/1/12
f 18/1/12 19/1/13 25/1/13
f 28/1/17 27/1/16 26/1/17
f 19/1/11 29/1/11 25/1/11
f 29/1/11 19/1/11 30/1/11
f 29/1/18 32/1/18 31/1/18
f 32/1/18 29/1/18 30/1/18
f 29/1/8 18/1/8 25/1/8
f 18/1/8 29/1/8 21/1/8
f 21/1/8 29/1/8 23/1/8
f 23/1/8 29/1/8 27/1/8
f 27/1/8 29/1/8 26/1/8
f 26/1/8 29/1/8 31/1/8
f 32/1/19 26/1/17 31/1/19
f 26/1/17 32/1/19 28/1/17
f 27/1/16 28/1/17 24/1/16
f 24/1/16 23/1/15 27/1/16
f 17/1/1 30/1/1 19/1/1
f 30/1/1 17/1/1 20/1/1
f 30/1/1 20/1/1 22/1/1
f 30/1/1 22/1/1 24/1/1
f 30/1/1 24/1/1 28/1/1
f 30/1/1 28/1/1 32/1/1
f 35/1/8 34/1/8 33/1/8
f 35/1/8 33/1/8 36/1/8
f 35/1/8 36/1/8 37/1/8
f 35/1/8 38/1/8 34/1/8
f 38/1/8 40/1/8 39/1/8
f 40/1/8 38/1/8 35/1/8
f 37/1/21 41/1/20 35/1/20
f 41/1/20 37/1/21 42/1/21
f 44/1/10 40/1/10 43/1/10
f 40/1/10 44/1/10 39/1/10
f 33/1/23 45/1/22 36/1/22
f 45/1/22 33/1/23 46/1/23
f 44/1/24 38/1/25 39/1/24
f 38/1/25 44/1/24 47/1/25
f 47/1/25 34/1/26 38/1/25
f 34/1/26 47/1/25 48/1/26
f 48/1/26 33/1/23 34/1/26
f 33/1/23 48/1/26 46/1/23
f 36/1/22 42/1/21 37/1/21
f 42/1/21 36/1/22 45/1/22
f 41/1/27 40/1/27 35/1/27
f 40/1/27 41/1/27 43/1/27
f 41/1/1 44/1/1 43/1/1
f 44/1/1 41/1/1 47/1/1
f 47/1/1 41/1/1 48/1/1
f 48/1/1 41/1/1 46/1/1
f 46/1/1 41/1/1 45/1/1
f 45/1/1 41/1/1 42/1/1
f 51/1/29 50/1/28 49/1/28
f 50/1/28 51/1/29 52/1/29
f 55/1/30 54/1/31 53/1/30
f 58/1/32 57/1/31 56/1/32
f 61/1/34 60/1/33 59/1/33
f 60/1/33 61/1/34 62/1/34
f 58/1/18 64/1/18 63/1/18
f 64/1/18 58/1/18 56/1/18
f 64/1/27 60/1/27 63/1/27
f 60/1/27 64/1/27 59/1/27
f 62/1/8 63/1/8 60/1/8
f 63/1/8 62/1/8 50/1/8
f 63/1/8 50/1/8 52/1/8
f 63/1/8 52/1/8 53/1/8
f 63/1/8 53/1/8 54/1/8
f 63/1/8 54/1/8 58/1/8
f 49/1/28 62/1/34 61/1/34
f 62/1/34 49/1/28 50/1/28
f 51/1/29 53/1/30 52/1/29
f 53/1/30 51/1/29 55/1/30
f 54/1/31 55/1/30 57/1/31
f 57/1/31 58/1/32 54/1/31
f 64/1/1 61/1/1 59/1/1
f 61/1/1 64/1/1 49/1/1
f 49/1/1 64/1/1 51/1/1
f 51/1/1 64/1/1 55/1/1
f 55/1/1 64/1/1 57/1/1
f 57/1/1 64/1/1 56/1/1
f 4/1/27 25/1/27 14/1/27
f 25/1/27 4/1/27 19/1/27
f 35/1/18 4/1/18 14/1/18
f 4/1/18 35/1/18 41/1/18
f 59/1/10 25/1/10 19/1/10
f 25/1/10 59/1/10 60/1/10
f 59/1/11 35/1/11 60/1/11
f 35/1/11 59/1/11 41/1/11
f 35/1/8 25/1/8 60/1/8
f 25/1/8 35/1/8 14/1/8
f 4/1/1 59/1/1 19/1/1
f 59/1/1 4/1/1 41/1/1
f 1/1/27 31/1/27 12/1/27
f 31/1/27 1/1/27 32/1/27
f 15/1/18 1/1/18 12/1/18
f 1/1/18 15/1/18 2/1/18
f 30/1/10 31/1/10 32/1/10
f 31/1/10 30/1/10 29/1/10
f 30/1/11 15/1/11 29/1/11
f 15/1/11 30/1/11 2/1/11
f 15/1/8 31/1/8 29/1/8
f 31/1/8 15/1/8 12/1/8
f 1/1/1 30/1/1 32/1/1
f 30/1/1 1/1/1 2/1/1
f 43/1/27 63/1/27 40/1/27
f 63/1/27 43/1/27 64/1/27
f 39/1/18 43/1/18 40/1/18
f 43/1/18 39/1/18 44/1/18
f 56/1/10 63/1/10 64/1/10
f 63/1/10 56/1/10 58/1/10
f 56/1/11 39/1/11 58/1/11
f 39/1/11 56/1/11 44/1/11
f 39/1/8 63/1/8 58/1/8
f 63/1/8 39/1/8 40/1/8
f 43/1/1 56/1/1 64/1/1
f 56/1/1 43/1/1 44/1/1

