# Created by Kenney (www.kenney.nl)

mtllib spatula.mtl

v 0.258819 -8.965926 0.5
v 0.258819 -8.965926 -0.5
v 0 -9 0.5
v 0.5 -8.866025 0.5
v 0.5 -8.866025 -0.5
v 0.7071068 -8.707107 0.5
v 0.7071068 -8.707107 -0.5
v 0.8660254 -8.5 0.5
v 0 -9 -0.5
v 0.9659258 -8.258819 -0.5
v 0.8660254 -8.5 -0.5
v 0.9659258 -8.258819 0.5
v 0 -8 -0.5
v 0 -8 0.5
v 1 -8 -0.5
v 1 -8 0.5
v -0.5 -8.866025 0.5
v -0.5 -8.866025 -0.5
v -0.7071068 -8.707107 0.5
v -0.7071068 -8.707107 -0.5
v -0.8660254 -8.5 -0.5
v -0.9659258 -8.258819 -0.5
v -0.8660254 -8.5 0.5
v -1 -8 0.5
v -0.9659258 -8.258819 0.5
v -1 -8 -0.5
v -0.258819 -8.965926 0.5
v -0.258819 -8.965926 -0.5
v 3 11 -0.25
v 3 9 -0.25
v 3 11 0.25
v 3 9 0.25
v -3 11 -0.25
v -3 11 0.25
v -3 9 0.25
v -3 9 -0.25
v 3 10 -0.25
v 3 10 0.25
v 2 11 -0.25
v 2 11 0.25
v 2 10 0.25
v 2 10 -0.25
v 4 10 -0.25
v 4 2 -0.25
v 4 10 0.25
v 4 2 0.25
v 3 2 0.25
v 3 2 -0.25
v -3 10 -0.25
v -3 2 -0.25
v -3 10 0.25
v -3 2 0.25
v -4 10 -0.25
v -4 10 0.25
v -4 2 0.25
v -4 2 -0.25
v 2 9 -0.25
v 2 2 -0.25
v 2 9 0.25
v 2 2 0.25
v -2 9 -0.25
v -2 9 0.25
v -2 2 0.25
v -2 2 -0.25
v 3 3 -0.25
v 3 3 0.25
v 2 3 -0.25
v 2 3 0.25
v -2 3 -0.25
v -2 3 0.25
v -3 3 -0.25
v -3 3 0.25
v 1 2 -0.5
v 1 -6 -0.5
v 1 2 0.5
v 1 -6 0.5
v -1 2 -0.5
v -1 2 0.5
v -1 -6 0.5
v -1 -6 -0.5

vn 0.258819 -0.9659258 0
vn 0.1305262 -0.9914449 0
vn 0.5 -0.8660254 0
vn 0.7071068 -0.7071068 0
vn 0.8660254 -0.5 0
vn 0.9659258 -0.258819 0
vn -1 0 0
vn 0 1 0
vn 0 0 -1
vn 0.9914449 -0.1305262 0
vn 0 0 1
vn -0.5 -0.8660254 0
vn -0.7071068 -0.7071068 0
vn -0.8660254 -0.5 0
vn -0.9659258 -0.258819 0
vn -0.9914449 -0.1305262 0
vn -0.1305262 -0.9914449 0
vn -0.258819 -0.9659258 0
vn 1 0 0
vn 0 -1 0

vt 0.8125 0.1875
vt 0.5625 0.1875

usemtl spatula

f 3/1/2 2/1/1 1/1/1
f 1/1/1 5/1/3 4/1/3
f 4/1/3 7/1/4 6/1/4
f 7/1/4 8/1/5 6/1/4
f 7/1/4 4/1/3 5/1/3
f 5/1/3 1/1/1 2/1/1
f 2/1/1 3/1/2 9/1/2
f 12/1/6 11/1/5 10/1/6
f 3/1/7 13/1/7 9/1/7
f 13/1/7 3/1/7 14/1/7
f 13/1/8 16/1/8 15/1/8
f 16/1/8 13/1/8 14/1/8
f 13/1/9 2/1/9 9/1/9
f 2/1/9 13/1/9 5/1/9
f 5/1/9 13/1/9 7/1/9
f 7/1/9 13/1/9 11/1/9
f 11/1/9 13/1/9 10/1/9
f 10/1/9 13/1/9 15/1/9
f 16/1/10 10/1/6 15/1/10
f 10/1/6 16/1/10 12/1/6
f 11/1/5 12/1/6 8/1/5
f 8/1/5 7/1/4 11/1/5
f 1/1/11 14/1/11 3/1/11
f 14/1/11 1/1/11 4/1/11
f 14/1/11 4/1/11 6/1/11
f 14/1/11 6/1/11 8/1/11
f 14/1/11 8/1/11 12/1/11
f 14/1/11 12/1/11 16/1/11
f 19/1/13 18/1/12 17/1/12
f 18/1/12 19/1/13 20/1/13
f 23/1/14 22/1/15 21/1/14
f 26/1/16 25/1/15 24/1/16
f 27/1/18 9/1/17 3/1/17
f 9/1/17 27/1/18 28/1/18
f 26/1/8 14/1/8 13/1/8
f 14/1/8 26/1/8 24/1/8
f 14/1/19 9/1/19 13/1/19
f 9/1/19 14/1/19 3/1/19
f 28/1/9 13/1/9 9/1/9
f 13/1/9 28/1/9 18/1/9
f 13/1/9 18/1/9 20/1/9
f 13/1/9 20/1/9 21/1/9
f 13/1/9 21/1/9 22/1/9
f 13/1/9 22/1/9 26/1/9
f 17/1/12 28/1/18 27/1/18
f 28/1/18 17/1/12 18/1/12
f 19/1/13 21/1/14 20/1/13
f 21/1/14 19/1/13 23/1/14
f 22/1/15 23/1/14 25/1/15
f 25/1/15 26/1/16 22/1/15
f 14/1/11 27/1/11 3/1/11
f 27/1/11 14/1/11 17/1/11
f 17/1/11 14/1/11 19/1/11
f 19/1/11 14/1/11 23/1/11
f 23/1/11 14/1/11 25/1/11
f 25/1/11 14/1/11 24/1/11
f 31/2/19 30/2/19 29/2/19
f 30/2/19 31/2/19 32/2/19
f 33/2/8 31/2/8 29/2/8
f 31/2/8 33/2/8 34/2/8
f 35/2/20 30/2/20 32/2/20
f 30/2/20 35/2/20 36/2/20
f 35/2/7 33/2/7 36/2/7
f 33/2/7 35/2/7 34/2/7
f 33/2/9 30/2/9 36/2/9
f 30/2/9 33/2/9 29/2/9
f 31/2/11 35/2/11 32/2/11
f 35/2/11 31/2/11 34/2/11
f 31/2/19 37/2/19 29/2/19
f 37/2/19 31/2/19 38/2/19
f 39/2/8 31/2/8 29/2/8
f 31/2/8 39/2/8 40/2/8
f 41/2/20 37/2/20 38/2/20
f 37/2/20 41/2/20 42/2/20
f 41/2/7 39/2/7 42/2/7
f 39/2/7 41/2/7 40/2/7
f 39/2/9 37/2/9 42/2/9
f 37/2/9 39/2/9 29/2/9
f 31/2/11 41/2/11 38/2/11
f 41/2/11 31/2/11 40/2/11
f 45/2/19 44/2/19 43/2/19
f 44/2/19 45/2/19 46/2/19
f 37/2/8 45/2/8 43/2/8
f 45/2/8 37/2/8 38/2/8
f 47/2/20 44/2/20 46/2/20
f 44/2/20 47/2/20 48/2/20
f 47/2/7 37/2/7 48/2/7
f 37/2/7 47/2/7 38/2/7
f 37/2/9 44/2/9 48/2/9
f 44/2/9 37/2/9 43/2/9
f 45/2/11 47/2/11 46/2/11
f 47/2/11 45/2/11 38/2/11
f 51/2/19 50/2/19 49/2/19
f 50/2/19 51/2/19 52/2/19
f 53/2/8 51/2/8 49/2/8
f 51/2/8 53/2/8 54/2/8
f 55/2/20 50/2/20 52/2/20
f 50/2/20 55/2/20 56/2/20
f 55/2/7 53/2/7 56/2/7
f 53/2/7 55/2/7 54/2/7
f 53/2/9 50/2/9 56/2/9
f 50/2/9 53/2/9 49/2/9
f 51/2/11 55/2/11 52/2/11
f 55/2/11 51/2/11 54/2/11
f 59/2/19 58/2/19 57/2/19
f 58/2/19 59/2/19 60/2/19
f 61/2/8 59/2/8 57/2/8
f 59/2/8 61/2/8 62/2/8
f 63/2/20 58/2/20 60/2/20
f 58/2/20 63/2/20 64/2/20
f 63/2/7 61/2/7 64/2/7
f 61/2/7 63/2/7 62/2/7
f 61/2/9 58/2/9 64/2/9
f 58/2/9 61/2/9 57/2/9
f 59/2/11 63/2/11 60/2/11
f 63/2/11 59/2/11 62/2/11
f 66/2/19 48/2/19 65/2/19
f 48/2/19 66/2/19 47/2/19
f 67/2/8 66/2/8 65/2/8
f 66/2/8 67/2/8 68/2/8
f 60/2/20 48/2/20 47/2/20
f 48/2/20 60/2/20 58/2/20
f 60/2/7 67/2/7 58/2/7
f 67/2/7 60/2/7 68/2/7
f 67/2/9 48/2/9 58/2/9
f 48/2/9 67/2/9 65/2/9
f 66/2/11 60/2/11 47/2/11
f 60/2/11 66/2/11 68/2/11
f 70/2/19 64/2/19 69/2/19
f 64/2/19 70/2/19 63/2/19
f 71/2/8 70/2/8 69/2/8
f 70/2/8 71/2/8 72/2/8
f 52/2/20 64/2/20 63/2/20
f 64/2/20 52/2/20 50/2/20
f 52/2/7 71/2/7 50/2/7
f 71/2/7 52/2/7 72/2/7
f 71/2/9 64/2/9 50/2/9
f 64/2/9 71/2/9 69/2/9
f 70/2/11 52/2/11 63/2/11
f 52/2/11 70/2/11 72/2/11
f 75/2/19 74/2/19 73/2/19
f 74/2/19 75/2/19 76/2/19
f 77/2/8 75/2/8 73/2/8
f 75/2/8 77/2/8 78/2/8
f 79/2/20 74/2/20 76/2/20
f 74/2/20 79/2/20 80/2/20
f 79/2/7 77/2/7 80/2/7
f 77/2/7 79/2/7 78/2/7
f 77/2/9 74/2/9 80/2/9
f 74/2/9 77/2/9 73/2/9
f 75/2/11 79/2/11 76/2/11
f 79/2/11 75/2/11 78/2/11
f 76/1/19 15/1/19 74/1/19
f 15/1/19 76/1/19 16/1/19
f 80/1/8 76/1/8 74/1/8
f 76/1/8 80/1/8 79/1/8
f 24/1/20 15/1/20 16/1/20
f 15/1/20 24/1/20 26/1/20
f 24/1/7 80/1/7 26/1/7
f 80/1/7 24/1/7 79/1/7
f 80/1/9 15/1/9 26/1/9
f 15/1/9 80/1/9 74/1/9
f 76/1/11 24/1/11 16/1/11
f 24/1/11 76/1/11 79/1/11

